<?xml version="1.0" encoding="UTF-8" standalone="no"?>
<!-- Created with Inkscape (http://www.inkscape.org/) -->
<svg xmlns:dc="http://purl.org/dc/elements/1.1/" xmlns:cc="http://creativecommons.org/ns#" xmlns:rdf="http://www.w3.org/1999/02/22-rdf-syntax-ns#" xmlns:svg="http://www.w3.org/2000/svg" xmlns="http://www.w3.org/2000/svg" version="1.1" width="156.948mm" height="161.735mm" viewBox="0 0 15695 16174" id="svg2" xml:space="preserve" style="fill-rule:evenodd"><script xmlns=""/><metadata id="metadata25"><rdf:RDF><cc:Work rdf:about=""><dc:format>image/svg+xml</dc:format><dc:type rdf:resource="http://purl.org/dc/dcmitype/StillImage"/><dc:title/></cc:Work></rdf:RDF></metadata>
 <defs id="defs4">
  <style type="text/css" id="style6"/>
 </defs>
 <g id="Layer_x0020_1">
  <metadata id="CorelCorpID_0Corel-Layer"/>
  <g id="_582506536">
   <circle cx="0" cy="0" r="7322" transform="matrix(0.526001,-0.91106,0.91106,0.526001,7990.83,8469.52)" id="circle11" style="fill:#e30421"/>
   <circle cx="0" cy="0" r="7322" transform="matrix(0.333124,-0.576988,0.576988,0.333124,8687.29,7257.12)" id="circle13" style="fill:#ae0f09"/>
   <circle cx="0" cy="0" r="7322" transform="matrix(0.426605,-0.738901,0.738901,0.426605,6248.21,6248.21)" id="circle15" style="fill:#e30421"/>
   <path d="M 1320,4618 C 3015,1682 6350,285 9499,914 12388,2673 13358,6427 11658,9372 9933,12360 6112,13384 3124,11659 1719,10848 748,9573 294,8140 345,6939 677,5732 1320,4619 z" id="path17" style="fill:#ae0f09"/>
   <path d="m 11900,3585 c 841,1788 821,3945 -241,5787 -768,1331 -1952,2271 -3293,2754 -723,-47 -1447,-257 -2117,-644 C 3916,10135 3116,7151 4463,4818 5810,2485 8794,1685 11127,3032 c 280,162 538,348 773,553 z" id="path19" style="fill:#890f01"/>
   <circle cx="0" cy="0" r="7322" transform="matrix(0.215386,-0.37306,0.37306,0.215386,7823.82,8887.02)" id="circle21" style="fill:#2e1b15"/>
  </g>
 </g>
</svg>