<?xml version="1.0" standalone="no"?>
<!DOCTYPE svg PUBLIC "-//W3C//DTD SVG 20010904//EN"
 "http://www.w3.org/TR/2001/REC-SVG-20010904/DTD/svg10.dtd">
<svg version="1.0" xmlns="http://www.w3.org/2000/svg"
 width="3840.000000pt" height="3840.000000pt" viewBox="0 0 3840.000000 3840.000000"
 preserveAspectRatio="xMidYMid meet">
<metadata>
Created by potrace 1.11, written by Peter Selinger 2001-2013
</metadata>
<g transform="translate(0.000000,3840.000000) scale(0.100000,-0.100000)"
fill="#000000" stroke="none">
<path d="M9970 38379 c-1272 -18 -2137 -81 -2942 -214 -1563 -259 -2963 -916
-4143 -1946 -167 -146 -558 -537 -704 -704 -937 -1073 -1559 -2314 -1866
-3721 -172 -793 -253 -1569 -287 -2754 -19 -651 -19 -18820 -1 -19510 43
-1594 171 -2612 448 -3560 328 -1124 908 -2180 1691 -3082 155 -179 614 -632
798 -788 744 -633 1577 -1123 2483 -1461 895 -334 1975 -533 3243 -599 635
-33 820 -34 9955 -37 9208 -4 10189 -1 10830 32 1337 68 2192 195 3034 450
770 234 1516 591 2199 1052 1051 709 1900 1635 2524 2753 481 860 785 1751
962 2817 128 765 171 1330 196 2578 16 762 8 19086 -8 19430 -70 1481 -156
2187 -362 3000 -149 587 -339 1100 -606 1635 -309 620 -665 1158 -1114 1686
-156 184 -609 642 -788 798 -1001 869 -2164 1473 -3449 1790 -846 209 -1669
306 -2948 348 -401 13 -18255 20 -19145 7z m-1890 -13254 c286 -42 597 -144
885 -287 114 -57 305 -167 305 -176 0 -3 -38 -66 -84 -141 -140 -226 -222
-374 -347 -626 -147 -297 -230 -497 -325 -780 -379 -1135 -326 -2182 146
-2890 90 -134 287 -337 404 -415 111 -74 267 -146 383 -177 88 -24 116 -27
273 -27 152 0 188 3 270 23 283 71 529 215 780 457 475 459 853 1194 1119
2173 28 101 52 185 53 186 2 2 165 -277 363 -619 197 -341 399 -686 449 -766
151 -245 263 -446 371 -665 212 -431 295 -712 295 -1000 0 -245 -64 -415 -212
-566 -156 -160 -408 -278 -744 -348 -177 -37 -319 -56 -624 -81 -135 -11 -510
-47 -835 -80 -949 -95 -1182 -114 -1664 -131 -468 -16 -943 6 -1326 62 -808
117 -1527 402 -2035 805 -109 87 -327 305 -413 414 -371 467 -588 1026 -659
1700 -18 170 -15 603 6 788 137 1249 766 2342 1648 2864 288 170 630 285 948
317 128 13 440 5 570 -14z m23000 -1100 c979 -146 1791 -921 2194 -2094 156
-453 229 -903 229 -1401 0 -286 -12 -449 -54 -690 -171 -985 -713 -1765 -1519
-2184 -459 -238 -1010 -396 -1620 -463 -135 -15 -247 -18 -625 -18 -477 0
-553 4 -975 51 -397 44 -766 101 -1693 263 -219 39 -516 88 -660 111 -144 22
-317 52 -384 66 -646 132 -1014 381 -1115 751 -28 104 -30 308 -4 438 75 380
313 832 780 1483 61 86 287 415 500 730 214 314 391 572 395 572 4 0 15 -48
25 -107 27 -157 99 -470 152 -661 221 -798 535 -1392 941 -1782 240 -231 480
-366 758 -426 107 -22 322 -23 426 0 265 57 467 172 679 385 181 183 302 364
409 613 379 885 301 2054 -221 3288 -80 189 -208 457 -291 609 -32 58 -54 108
-49 113 18 18 333 158 454 202 227 82 499 144 723 165 132 13 414 5 545 -14z
m-21483 -659 c57 -35 75 -83 85 -232 7 -94 6 -149 -2 -188 -31 -151 -172 -226
-423 -226 -112 0 -114 0 -160 33 -92 65 -140 146 -157 263 -21 142 11 242 95
301 75 52 185 72 385 70 123 -2 150 -5 177 -21z m19703 -981 c216 -43 301
-151 272 -346 -16 -114 -44 -169 -118 -238 -79 -74 -112 -86 -225 -77 -164 12
-277 54 -342 126 -70 78 -81 149 -52 342 18 118 44 172 95 200 31 18 49 19
165 14 72 -3 164 -12 205 -21z"/>
</g>
</svg>
